# xmcd
#
# Track frame offsets: 
#        150
#        20982
#        41195
#        58214
#
# Disc length: 869 seconds
#
# Revision: 0
# Processed by: cddbd v1.5.2PL0 Copyright (c) Steve Scherf et al.
# Submitted via: ExactAudioCopyFreeDBPlugin 1.0
#
DISCID=3a036304
DTITLE=LiSA / 『ニセコイ：』OP:Rally Go Round
DYEAR=2015
DGENRE=Anime
TTITLE0=Rally Go Round
TTITLE1=オレンジサイダー
TTITLE2=キモチファクトリー
TTITLE3=Rally Go Round -TV ver.-
EXTD=
EXTT0=
EXTT1=
EXTT2=
EXTT3=
PLAYORDER=
